<svg version="1.1" xmlns="http://www.w3.org/2000/svg" xmlns:xlink="http://www.w3.org/1999/xlink" width="586.12451171875" height="576"><defs/><g><text fill="#eeeeee" stroke="none" font-family="Arial" font-size="24px" font-style="normal" font-weight="normal" text-decoration="none" x="0" y="0">UNREGISTERED</text><text fill="#eeeeee" stroke="none" font-family="Arial" font-size="24px" font-style="normal" font-weight="normal" text-decoration="none" x="0" y="30">UNREGISTERED</text><text fill="#eeeeee" stroke="none" font-family="Arial" font-size="24px" font-style="normal" font-weight="normal" text-decoration="none" x="0" y="60">UNREGISTERED</text><text fill="#eeeeee" stroke="none" font-family="Arial" font-size="24px" font-style="normal" font-weight="normal" text-decoration="none" x="0" y="90">UNREGISTERED</text><text fill="#eeeeee" stroke="none" font-family="Arial" font-size="24px" font-style="normal" font-weight="normal" text-decoration="none" x="0" y="120">UNREGISTERED</text><text fill="#eeeeee" stroke="none" font-family="Arial" font-size="24px" font-style="normal" font-weight="normal" text-decoration="none" x="0" y="150">UNREGISTERED</text><text fill="#eeeeee" stroke="none" font-family="Arial" font-size="24px" font-style="normal" font-weight="normal" text-decoration="none" x="0" y="180">UNREGISTERED</text><text fill="#eeeeee" stroke="none" font-family="Arial" font-size="24px" font-style="normal" font-weight="normal" text-decoration="none" x="0" y="210">UNREGISTERED</text><text fill="#eeeeee" stroke="none" font-family="Arial" font-size="24px" font-style="normal" font-weight="normal" text-decoration="none" x="0" y="240">UNREGISTERED</text><text fill="#eeeeee" stroke="none" font-family="Arial" font-size="24px" font-style="normal" font-weight="normal" text-decoration="none" x="0" y="270">UNREGISTERED</text><text fill="#eeeeee" stroke="none" font-family="Arial" font-size="24px" font-style="normal" font-weight="normal" text-decoration="none" x="0" y="300">UNREGISTERED</text><text fill="#eeeeee" stroke="none" font-family="Arial" font-size="24px" font-style="normal" font-weight="normal" text-decoration="none" x="0" y="330">UNREGISTERED</text><text fill="#eeeeee" stroke="none" font-family="Arial" font-size="24px" font-style="normal" font-weight="normal" text-decoration="none" x="0" y="360">UNREGISTERED</text><text fill="#eeeeee" stroke="none" font-family="Arial" font-size="24px" font-style="normal" font-weight="normal" text-decoration="none" x="0" y="390">UNREGISTERED</text><text fill="#eeeeee" stroke="none" font-family="Arial" font-size="24px" font-style="normal" font-weight="normal" text-decoration="none" x="0" y="420">UNREGISTERED</text><text fill="#eeeeee" stroke="none" font-family="Arial" font-size="24px" font-style="normal" font-weight="normal" text-decoration="none" x="0" y="450">UNREGISTERED</text><text fill="#eeeeee" stroke="none" font-family="Arial" font-size="24px" font-style="normal" font-weight="normal" text-decoration="none" x="0" y="480">UNREGISTERED</text><text fill="#eeeeee" stroke="none" font-family="Arial" font-size="24px" font-style="normal" font-weight="normal" text-decoration="none" x="0" y="510">UNREGISTERED</text><text fill="#eeeeee" stroke="none" font-family="Arial" font-size="24px" font-style="normal" font-weight="normal" text-decoration="none" x="0" y="540">UNREGISTERED</text><text fill="#eeeeee" stroke="none" font-family="Arial" font-size="24px" font-style="normal" font-weight="normal" text-decoration="none" x="0" y="570">UNREGISTERED</text><text fill="#eeeeee" stroke="none" font-family="Arial" font-size="24px" font-style="normal" font-weight="normal" text-decoration="none" x="200" y="0">UNREGISTERED</text><text fill="#eeeeee" stroke="none" font-family="Arial" font-size="24px" font-style="normal" font-weight="normal" text-decoration="none" x="200" y="30">UNREGISTERED</text><text fill="#eeeeee" stroke="none" font-family="Arial" font-size="24px" font-style="normal" font-weight="normal" text-decoration="none" x="200" y="60">UNREGISTERED</text><text fill="#eeeeee" stroke="none" font-family="Arial" font-size="24px" font-style="normal" font-weight="normal" text-decoration="none" x="200" y="90">UNREGISTERED</text><text fill="#eeeeee" stroke="none" font-family="Arial" font-size="24px" font-style="normal" font-weight="normal" text-decoration="none" x="200" y="120">UNREGISTERED</text><text fill="#eeeeee" stroke="none" font-family="Arial" font-size="24px" font-style="normal" font-weight="normal" text-decoration="none" x="200" y="150">UNREGISTERED</text><text fill="#eeeeee" stroke="none" font-family="Arial" font-size="24px" font-style="normal" font-weight="normal" text-decoration="none" x="200" y="180">UNREGISTERED</text><text fill="#eeeeee" stroke="none" font-family="Arial" font-size="24px" font-style="normal" font-weight="normal" text-decoration="none" x="200" y="210">UNREGISTERED</text><text fill="#eeeeee" stroke="none" font-family="Arial" font-size="24px" font-style="normal" font-weight="normal" text-decoration="none" x="200" y="240">UNREGISTERED</text><text fill="#eeeeee" stroke="none" font-family="Arial" font-size="24px" font-style="normal" font-weight="normal" text-decoration="none" x="200" y="270">UNREGISTERED</text><text fill="#eeeeee" stroke="none" font-family="Arial" font-size="24px" font-style="normal" font-weight="normal" text-decoration="none" x="200" y="300">UNREGISTERED</text><text fill="#eeeeee" stroke="none" font-family="Arial" font-size="24px" font-style="normal" font-weight="normal" text-decoration="none" x="200" y="330">UNREGISTERED</text><text fill="#eeeeee" stroke="none" font-family="Arial" font-size="24px" font-style="normal" font-weight="normal" text-decoration="none" x="200" y="360">UNREGISTERED</text><text fill="#eeeeee" stroke="none" font-family="Arial" font-size="24px" font-style="normal" font-weight="normal" text-decoration="none" x="200" y="390">UNREGISTERED</text><text fill="#eeeeee" stroke="none" font-family="Arial" font-size="24px" font-style="normal" font-weight="normal" text-decoration="none" x="200" y="420">UNREGISTERED</text><text fill="#eeeeee" stroke="none" font-family="Arial" font-size="24px" font-style="normal" font-weight="normal" text-decoration="none" x="200" y="450">UNREGISTERED</text><text fill="#eeeeee" stroke="none" font-family="Arial" font-size="24px" font-style="normal" font-weight="normal" text-decoration="none" x="200" y="480">UNREGISTERED</text><text fill="#eeeeee" stroke="none" font-family="Arial" font-size="24px" font-style="normal" font-weight="normal" text-decoration="none" x="200" y="510">UNREGISTERED</text><text fill="#eeeeee" stroke="none" font-family="Arial" font-size="24px" font-style="normal" font-weight="normal" text-decoration="none" x="200" y="540">UNREGISTERED</text><text fill="#eeeeee" stroke="none" font-family="Arial" font-size="24px" font-style="normal" font-weight="normal" text-decoration="none" x="200" y="570">UNREGISTERED</text><text fill="#eeeeee" stroke="none" font-family="Arial" font-size="24px" font-style="normal" font-weight="normal" text-decoration="none" x="400" y="0">UNREGISTERED</text><text fill="#eeeeee" stroke="none" font-family="Arial" font-size="24px" font-style="normal" font-weight="normal" text-decoration="none" x="400" y="30">UNREGISTERED</text><text fill="#eeeeee" stroke="none" font-family="Arial" font-size="24px" font-style="normal" font-weight="normal" text-decoration="none" x="400" y="60">UNREGISTERED</text><text fill="#eeeeee" stroke="none" font-family="Arial" font-size="24px" font-style="normal" font-weight="normal" text-decoration="none" x="400" y="90">UNREGISTERED</text><text fill="#eeeeee" stroke="none" font-family="Arial" font-size="24px" font-style="normal" font-weight="normal" text-decoration="none" x="400" y="120">UNREGISTERED</text><text fill="#eeeeee" stroke="none" font-family="Arial" font-size="24px" font-style="normal" font-weight="normal" text-decoration="none" x="400" y="150">UNREGISTERED</text><text fill="#eeeeee" stroke="none" font-family="Arial" font-size="24px" font-style="normal" font-weight="normal" text-decoration="none" x="400" y="180">UNREGISTERED</text><text fill="#eeeeee" stroke="none" font-family="Arial" font-size="24px" font-style="normal" font-weight="normal" text-decoration="none" x="400" y="210">UNREGISTERED</text><text fill="#eeeeee" stroke="none" font-family="Arial" font-size="24px" font-style="normal" font-weight="normal" text-decoration="none" x="400" y="240">UNREGISTERED</text><text fill="#eeeeee" stroke="none" font-family="Arial" font-size="24px" font-style="normal" font-weight="normal" text-decoration="none" x="400" y="270">UNREGISTERED</text><text fill="#eeeeee" stroke="none" font-family="Arial" font-size="24px" font-style="normal" font-weight="normal" text-decoration="none" x="400" y="300">UNREGISTERED</text><text fill="#eeeeee" stroke="none" font-family="Arial" font-size="24px" font-style="normal" font-weight="normal" text-decoration="none" x="400" y="330">UNREGISTERED</text><text fill="#eeeeee" stroke="none" font-family="Arial" font-size="24px" font-style="normal" font-weight="normal" text-decoration="none" x="400" y="360">UNREGISTERED</text><text fill="#eeeeee" stroke="none" font-family="Arial" font-size="24px" font-style="normal" font-weight="normal" text-decoration="none" x="400" y="390">UNREGISTERED</text><text fill="#eeeeee" stroke="none" font-family="Arial" font-size="24px" font-style="normal" font-weight="normal" text-decoration="none" x="400" y="420">UNREGISTERED</text><text fill="#eeeeee" stroke="none" font-family="Arial" font-size="24px" font-style="normal" font-weight="normal" text-decoration="none" x="400" y="450">UNREGISTERED</text><text fill="#eeeeee" stroke="none" font-family="Arial" font-size="24px" font-style="normal" font-weight="normal" text-decoration="none" x="400" y="480">UNREGISTERED</text><text fill="#eeeeee" stroke="none" font-family="Arial" font-size="24px" font-style="normal" font-weight="normal" text-decoration="none" x="400" y="510">UNREGISTERED</text><text fill="#eeeeee" stroke="none" font-family="Arial" font-size="24px" font-style="normal" font-weight="normal" text-decoration="none" x="400" y="540">UNREGISTERED</text><text fill="#eeeeee" stroke="none" font-family="Arial" font-size="24px" font-style="normal" font-weight="normal" text-decoration="none" x="400" y="570">UNREGISTERED</text><g transform="translate(-38,-6) scale(1,1)"><rect fill="#C0C0C0" stroke="none" x="55" y="23" width="230.7744140625" height="47" opacity="0.2"/></g><g transform="translate(-38,-6) scale(1,1)"><rect fill="#ffffff" stroke="none" x="48" y="16" width="230.7744140625" height="47"/></g><g transform="translate(-38,-6) scale(1,1)"><path fill="none" stroke="#000000" d="M 48 16 L 278.7744140625 16 L 278.7744140625 63 L 48 63 L 48 16 Z Z" stroke-miterlimit="10"/></g><g transform="translate(-38,-6) scale(1,1)"><rect fill="#ffffff" stroke="none" x="48" y="16" width="230.7744140625" height="47"/></g><g transform="translate(-38,-6) scale(1,1)"><path fill="none" stroke="#000000" d="M 48 16 L 278.7744140625 16 L 278.7744140625 63 L 48 63 L 48 16 Z Z" stroke-miterlimit="10"/></g><g transform="translate(-38,-6) scale(1,1)"><path fill="none" stroke="#000000" d="M 48 41 L 278.7744140625 41" stroke-miterlimit="10"/></g><g transform="translate(-38,-6) scale(1,1)"><g><path fill="none" stroke="none"/><text fill="#000000" stroke="none" font-family="Arial" font-size="13px" font-style="normal" font-weight="bold" text-decoration="none" x="63.313232421875" y="35.5">Alex: ServerProcessingAndControl</text><path fill="none" stroke="#000000" d="M 272.10986328125 35.5 L 54.66455078125 35.5" stroke-miterlimit="10"/></g></g><g transform="translate(-38,-6) scale(1,1)"><g><path fill="none" stroke="none"/><text fill="#000000" stroke="none" font-family="Arial" font-size="13px" font-style="normal" font-weight="normal" text-decoration="none" x="53" y="58.5">-serverID = 1</text></g></g><g transform="translate(-38,-6) scale(1,1)"><rect fill="#C0C0C0" stroke="none" x="455" y="23" width="132.53173828125" height="92" opacity="0.2"/></g><g transform="translate(-38,-6) scale(1,1)"><rect fill="#ffffff" stroke="none" x="448" y="16" width="132.53173828125" height="92"/></g><g transform="translate(-38,-6) scale(1,1)"><path fill="none" stroke="#000000" d="M 448 16 L 580.53173828125 16 L 580.53173828125 108 L 448 108 L 448 16 Z Z" stroke-miterlimit="10"/></g><g transform="translate(-38,-6) scale(1,1)"><rect fill="#ffffff" stroke="none" x="448" y="16" width="132.53173828125" height="92"/></g><g transform="translate(-38,-6) scale(1,1)"><path fill="none" stroke="#000000" d="M 448 16 L 580.53173828125 16 L 580.53173828125 108 L 448 108 L 448 16 Z Z" stroke-miterlimit="10"/></g><g transform="translate(-38,-6) scale(1,1)"><path fill="none" stroke="#000000" d="M 448 41 L 580.53173828125 41" stroke-miterlimit="10"/></g><g transform="translate(-38,-6) scale(1,1)"><g><path fill="none" stroke="none"/><text fill="#000000" stroke="none" font-family="Arial" font-size="13px" font-style="normal" font-weight="bold" text-decoration="none" x="457.194091796875" y="35.5">currentOrder: Order</text><path fill="none" stroke="#000000" d="M 576.03173828125 35.5 L 452.5 35.5" stroke-miterlimit="10"/></g></g><g transform="translate(-38,-6) scale(1,1)"><g><path fill="none" stroke="none"/><text fill="#000000" stroke="none" font-family="Arial" font-size="13px" font-style="normal" font-weight="normal" text-decoration="none" x="453" y="58.5">-tableNum = 4</text></g></g><g transform="translate(-38,-6) scale(1,1)"><g><path fill="none" stroke="none"/><text fill="#000000" stroke="none" font-family="Arial" font-size="13px" font-style="normal" font-weight="normal" text-decoration="none" x="453" y="73.5">-orderID = 21</text></g></g><g transform="translate(-38,-6) scale(1,1)"><g><path fill="none" stroke="none"/><text fill="#000000" stroke="none" font-family="Arial" font-size="13px" font-style="normal" font-weight="normal" text-decoration="none" x="453" y="88.5">-serverID = 1</text></g></g><g transform="translate(-38,-6) scale(1,1)"><g><path fill="none" stroke="none"/><text fill="#000000" stroke="none" font-family="Arial" font-size="13px" font-style="normal" font-weight="normal" text-decoration="none" x="453" y="103.5">-orderItem = 3</text></g></g><g transform="translate(-38,-6) scale(1,1)"><rect fill="#C0C0C0" stroke="none" x="55" y="127" width="230.7744140625" height="47" opacity="0.2"/></g><g transform="translate(-38,-6) scale(1,1)"><rect fill="#ffffff" stroke="none" x="48" y="120" width="230.7744140625" height="47"/></g><g transform="translate(-38,-6) scale(1,1)"><path fill="none" stroke="#000000" d="M 48 120 L 278.7744140625 120 L 278.7744140625 167 L 48 167 L 48 120 Z Z" stroke-miterlimit="10"/></g><g transform="translate(-38,-6) scale(1,1)"><rect fill="#ffffff" stroke="none" x="48" y="120" width="230.7744140625" height="47"/></g><g transform="translate(-38,-6) scale(1,1)"><path fill="none" stroke="#000000" d="M 48 120 L 278.7744140625 120 L 278.7744140625 167 L 48 167 L 48 120 Z Z" stroke-miterlimit="10"/></g><g transform="translate(-38,-6) scale(1,1)"><path fill="none" stroke="#000000" d="M 48 145 L 278.7744140625 145" stroke-miterlimit="10"/></g><g transform="translate(-38,-6) scale(1,1)"><g><path fill="none" stroke="none"/><text fill="#000000" stroke="none" font-family="Arial" font-size="13px" font-style="normal" font-weight="bold" text-decoration="none" x="60.78369140625" y="139.5">Ryan: ServerProcessingAndControl</text><path fill="none" stroke="#000000" d="M 274.2744140625 139.5 L 52.5 139.5" stroke-miterlimit="10"/></g></g><g transform="translate(-38,-6) scale(1,1)"><g><path fill="none" stroke="none"/><text fill="#000000" stroke="none" font-family="Arial" font-size="13px" font-style="normal" font-weight="normal" text-decoration="none" x="53" y="162.5">-serverID = 2</text></g></g><g transform="translate(-38,-6) scale(1,1)"><rect fill="#C0C0C0" stroke="none" x="55" y="231" width="242.34619140625" height="47" opacity="0.2"/></g><g transform="translate(-38,-6) scale(1,1)"><rect fill="#ffffff" stroke="none" x="48" y="224" width="242.34619140625" height="47"/></g><g transform="translate(-38,-6) scale(1,1)"><path fill="none" stroke="#000000" d="M 48 224 L 290.34619140625 224 L 290.34619140625 271 L 48 271 L 48 224 Z Z" stroke-miterlimit="10"/></g><g transform="translate(-38,-6) scale(1,1)"><rect fill="#ffffff" stroke="none" x="48" y="224" width="242.34619140625" height="47"/></g><g transform="translate(-38,-6) scale(1,1)"><path fill="none" stroke="#000000" d="M 48 224 L 290.34619140625 224 L 290.34619140625 271 L 48 271 L 48 224 Z Z" stroke-miterlimit="10"/></g><g transform="translate(-38,-6) scale(1,1)"><path fill="none" stroke="#000000" d="M 48 249 L 290.34619140625 249" stroke-miterlimit="10"/></g><g transform="translate(-38,-6) scale(1,1)"><g><path fill="none" stroke="none"/><text fill="#000000" stroke="none" font-family="Arial" font-size="13px" font-style="normal" font-weight="bold" text-decoration="none" x="61.155029296875" y="243.5">Samira: ServerProcessingAndControl</text><path fill="none" stroke="#000000" d="M 285.84619140625 243.5 L 52.5 243.5" stroke-miterlimit="10"/></g></g><g transform="translate(-38,-6) scale(1,1)"><g><path fill="none" stroke="none"/><text fill="#000000" stroke="none" font-family="Arial" font-size="13px" font-style="normal" font-weight="normal" text-decoration="none" x="53" y="266.5">-serverID = 372</text></g></g><g transform="translate(-38,-6) scale(1,1)"><rect fill="#C0C0C0" stroke="none" x="55" y="335" width="238.71533203125" height="47" opacity="0.2"/></g><g transform="translate(-38,-6) scale(1,1)"><rect fill="#ffffff" stroke="none" x="48" y="328" width="238.71533203125" height="47"/></g><g transform="translate(-38,-6) scale(1,1)"><path fill="none" stroke="#000000" d="M 48 328 L 286.71533203125 328 L 286.71533203125 375 L 48 375 L 48 328 Z Z" stroke-miterlimit="10"/></g><g transform="translate(-38,-6) scale(1,1)"><rect fill="#ffffff" stroke="none" x="48" y="328" width="238.71533203125" height="47"/></g><g transform="translate(-38,-6) scale(1,1)"><path fill="none" stroke="#000000" d="M 48 328 L 286.71533203125 328 L 286.71533203125 375 L 48 375 L 48 328 Z Z" stroke-miterlimit="10"/></g><g transform="translate(-38,-6) scale(1,1)"><path fill="none" stroke="#000000" d="M 48 353 L 286.71533203125 353" stroke-miterlimit="10"/></g><g transform="translate(-38,-6) scale(1,1)"><g><path fill="none" stroke="none"/><text fill="#000000" stroke="none" font-family="Arial" font-size="13px" font-style="normal" font-weight="bold" text-decoration="none" x="61.13916015625" y="347.5">Devon: ServerProcessingAndControl</text><path fill="none" stroke="#000000" d="M 282.21533203125 347.5 L 52.5 347.5" stroke-miterlimit="10"/></g></g><g transform="translate(-38,-6) scale(1,1)"><g><path fill="none" stroke="none"/><text fill="#000000" stroke="none" font-family="Arial" font-size="13px" font-style="normal" font-weight="normal" text-decoration="none" x="53" y="370.5">-serverID = 4</text></g></g><g transform="translate(-38,-6) scale(1,1)"><rect fill="#C0C0C0" stroke="none" x="455" y="127" width="132.53173828125" height="92" opacity="0.2"/></g><g transform="translate(-38,-6) scale(1,1)"><rect fill="#ffffff" stroke="none" x="448" y="120" width="132.53173828125" height="92"/></g><g transform="translate(-38,-6) scale(1,1)"><path fill="none" stroke="#000000" d="M 448 120 L 580.53173828125 120 L 580.53173828125 212 L 448 212 L 448 120 Z Z" stroke-miterlimit="10"/></g><g transform="translate(-38,-6) scale(1,1)"><rect fill="#ffffff" stroke="none" x="448" y="120" width="132.53173828125" height="92"/></g><g transform="translate(-38,-6) scale(1,1)"><path fill="none" stroke="#000000" d="M 448 120 L 580.53173828125 120 L 580.53173828125 212 L 448 212 L 448 120 Z Z" stroke-miterlimit="10"/></g><g transform="translate(-38,-6) scale(1,1)"><path fill="none" stroke="#000000" d="M 448 145 L 580.53173828125 145" stroke-miterlimit="10"/></g><g transform="translate(-38,-6) scale(1,1)"><g><path fill="none" stroke="none"/><text fill="#000000" stroke="none" font-family="Arial" font-size="13px" font-style="normal" font-weight="bold" text-decoration="none" x="457.194091796875" y="139.5">currentOrder: Order</text><path fill="none" stroke="#000000" d="M 576.03173828125 139.5 L 452.5 139.5" stroke-miterlimit="10"/></g></g><g transform="translate(-38,-6) scale(1,1)"><g><path fill="none" stroke="none"/><text fill="#000000" stroke="none" font-family="Arial" font-size="13px" font-style="normal" font-weight="normal" text-decoration="none" x="453" y="162.5">-tableNum = 6</text></g></g><g transform="translate(-38,-6) scale(1,1)"><g><path fill="none" stroke="none"/><text fill="#000000" stroke="none" font-family="Arial" font-size="13px" font-style="normal" font-weight="normal" text-decoration="none" x="453" y="177.5">-orderID = 12</text></g></g><g transform="translate(-38,-6) scale(1,1)"><g><path fill="none" stroke="none"/><text fill="#000000" stroke="none" font-family="Arial" font-size="13px" font-style="normal" font-weight="normal" text-decoration="none" x="453" y="192.5">-serverID = 2</text></g></g><g transform="translate(-38,-6) scale(1,1)"><g><path fill="none" stroke="none"/><text fill="#000000" stroke="none" font-family="Arial" font-size="13px" font-style="normal" font-weight="normal" text-decoration="none" x="453" y="207.5">-orderItem = 7</text></g></g><g transform="translate(-38,-6) scale(1,1)"><rect fill="#C0C0C0" stroke="none" x="455" y="231" width="132.53173828125" height="92" opacity="0.2"/></g><g transform="translate(-38,-6) scale(1,1)"><rect fill="#ffffff" stroke="none" x="448" y="224" width="132.53173828125" height="92"/></g><g transform="translate(-38,-6) scale(1,1)"><path fill="none" stroke="#000000" d="M 448 224 L 580.53173828125 224 L 580.53173828125 316 L 448 316 L 448 224 Z Z" stroke-miterlimit="10"/></g><g transform="translate(-38,-6) scale(1,1)"><rect fill="#ffffff" stroke="none" x="448" y="224" width="132.53173828125" height="92"/></g><g transform="translate(-38,-6) scale(1,1)"><path fill="none" stroke="#000000" d="M 448 224 L 580.53173828125 224 L 580.53173828125 316 L 448 316 L 448 224 Z Z" stroke-miterlimit="10"/></g><g transform="translate(-38,-6) scale(1,1)"><path fill="none" stroke="#000000" d="M 448 249 L 580.53173828125 249" stroke-miterlimit="10"/></g><g transform="translate(-38,-6) scale(1,1)"><g><path fill="none" stroke="none"/><text fill="#000000" stroke="none" font-family="Arial" font-size="13px" font-style="normal" font-weight="bold" text-decoration="none" x="457.194091796875" y="243.5">currentOrder: Order</text><path fill="none" stroke="#000000" d="M 576.03173828125 243.5 L 452.5 243.5" stroke-miterlimit="10"/></g></g><g transform="translate(-38,-6) scale(1,1)"><g><path fill="none" stroke="none"/><text fill="#000000" stroke="none" font-family="Arial" font-size="13px" font-style="normal" font-weight="normal" text-decoration="none" x="453" y="266.5">-tableNum = 16</text></g></g><g transform="translate(-38,-6) scale(1,1)"><g><path fill="none" stroke="none"/><text fill="#000000" stroke="none" font-family="Arial" font-size="13px" font-style="normal" font-weight="normal" text-decoration="none" x="453" y="281.5">-orderID = 1</text></g></g><g transform="translate(-38,-6) scale(1,1)"><g><path fill="none" stroke="none"/><text fill="#000000" stroke="none" font-family="Arial" font-size="13px" font-style="normal" font-weight="normal" text-decoration="none" x="453" y="296.5">-serverID = 372</text></g></g><g transform="translate(-38,-6) scale(1,1)"><g><path fill="none" stroke="none"/><text fill="#000000" stroke="none" font-family="Arial" font-size="13px" font-style="normal" font-weight="normal" text-decoration="none" x="453" y="311.5">-orderItem = 7</text></g></g><g transform="translate(-38,-6) scale(1,1)"><path fill="none" stroke="#000000" d="M 280 47 L 447 58" stroke-miterlimit="10"/></g><g transform="translate(-38,-6) scale(1,1)"><path fill="none" stroke="#000000" d="M 436.5826256158616 61.53246527805963 L 447 58 L 437.1359737783947 53.13163408323869" stroke-miterlimit="10"/></g><g transform="translate(-38,-6) scale(1,1)"><g><path fill="none" stroke="none"/><text fill="#000000" stroke="none" font-family="Arial" font-size="13px" font-style="normal" font-weight="normal" text-decoration="none" x="340.13134765625" y="43.5">-1 has 1</text></g></g><g transform="translate(-38,-6) scale(1,1)"><path fill="none" stroke="#000000" d="M 280 151 L 447 162" stroke-miterlimit="10"/></g><g transform="translate(-38,-6) scale(1,1)"><path fill="none" stroke="#000000" d="M 436.5826256158616 165.53246527805965 L 447 162 L 437.1359737783947 157.13163408323868" stroke-miterlimit="10"/></g><g transform="translate(-38,-6) scale(1,1)"><g><path fill="none" stroke="none"/><text fill="#000000" stroke="none" font-family="Arial" font-size="13px" font-style="normal" font-weight="normal" text-decoration="none" x="340.5" y="147.5">-1 has 1</text></g></g><g transform="translate(-38,-6) scale(1,1)"><path fill="none" stroke="#000000" d="M 291 255 L 447 266" stroke-miterlimit="10"/></g><g transform="translate(-38,-6) scale(1,1)"><path fill="none" stroke="#000000" d="M 436.56640622667504 269.48426763800296 L 447 266 L 437.15858581643545 261.0860843650369" stroke-miterlimit="10"/></g><g transform="translate(-38,-6) scale(1,1)"><g><path fill="none" stroke="none"/><text fill="#000000" stroke="none" font-family="Arial" font-size="13px" font-style="normal" font-weight="normal" text-decoration="none" x="346.5" y="251.5">-1 has 1</text></g></g><g transform="translate(-38,-6) scale(1,1)"><rect fill="#C0C0C0" stroke="none" x="63" y="487" width="126.74267578125" height="47" opacity="0.2"/></g><g transform="translate(-38,-6) scale(1,1)"><rect fill="#ffffff" stroke="none" x="56" y="480" width="126.74267578125" height="47"/></g><g transform="translate(-38,-6) scale(1,1)"><path fill="none" stroke="#000000" d="M 56 480 L 182.74267578125 480 L 182.74267578125 527 L 56 527 L 56 480 Z Z" stroke-miterlimit="10"/></g><g transform="translate(-38,-6) scale(1,1)"><rect fill="#ffffff" stroke="none" x="56" y="480" width="126.74267578125" height="47"/></g><g transform="translate(-38,-6) scale(1,1)"><path fill="none" stroke="#000000" d="M 56 480 L 182.74267578125 480 L 182.74267578125 527 L 56 527 L 56 480 Z Z" stroke-miterlimit="10"/></g><g transform="translate(-38,-6) scale(1,1)"><path fill="none" stroke="#000000" d="M 56 505 L 182.74267578125 505" stroke-miterlimit="10"/></g><g transform="translate(-38,-6) scale(1,1)"><g><path fill="none" stroke="none"/><text fill="#000000" stroke="none" font-family="Arial" font-size="13px" font-style="normal" font-weight="bold" text-decoration="none" x="63.02001953125" y="499.5">OM: OrderManager</text><path fill="none" stroke="#000000" d="M 178.24267578125 499.5 L 60.5 499.5" stroke-miterlimit="10"/></g></g><g transform="translate(-38,-6) scale(1,1)"><g><path fill="none" stroke="none"/><text fill="#000000" stroke="none" font-family="Arial" font-size="13px" font-style="normal" font-weight="normal" text-decoration="none" x="61" y="522.5">-orders[2]</text></g></g><g transform="translate(-38,-6) scale(1,1)"><rect fill="#C0C0C0" stroke="none" x="407" y="375" width="214.12451171875" height="62" opacity="0.2"/></g><g transform="translate(-38,-6) scale(1,1)"><rect fill="#ffffff" stroke="none" x="400" y="368" width="214.12451171875" height="62"/></g><g transform="translate(-38,-6) scale(1,1)"><path fill="none" stroke="#000000" d="M 400 368 L 614.12451171875 368 L 614.12451171875 430 L 400 430 L 400 368 Z Z" stroke-miterlimit="10"/></g><g transform="translate(-38,-6) scale(1,1)"><rect fill="#ffffff" stroke="none" x="400" y="368" width="214.12451171875" height="62"/></g><g transform="translate(-38,-6) scale(1,1)"><path fill="none" stroke="#000000" d="M 400 368 L 614.12451171875 368 L 614.12451171875 430 L 400 430 L 400 368 Z Z" stroke-miterlimit="10"/></g><g transform="translate(-38,-6) scale(1,1)"><path fill="none" stroke="#000000" d="M 400 393 L 614.12451171875 393" stroke-miterlimit="10"/></g><g transform="translate(-38,-6) scale(1,1)"><g><path fill="none" stroke="none"/><text fill="#000000" stroke="none" font-family="Arial" font-size="13px" font-style="normal" font-weight="bold" text-decoration="none" x="412.761474609375" y="387.5">chef: ChefProcessingAndControl</text><path fill="none" stroke="#000000" d="M 609.62451171875 387.5 L 404.5 387.5" stroke-miterlimit="10"/></g></g><g transform="translate(-38,-6) scale(1,1)"><g><path fill="none" stroke="none"/><text fill="#000000" stroke="none" font-family="Arial" font-size="13px" font-style="normal" font-weight="normal" text-decoration="none" x="405" y="410.5">-orderIDs[2] = {3 5}</text></g></g><g transform="translate(-38,-6) scale(1,1)"><g><path fill="none" stroke="none"/><text fill="#000000" stroke="none" font-family="Arial" font-size="13px" font-style="normal" font-weight="normal" text-decoration="none" x="405" y="425.5">-orderItems[2] = {4 9}</text></g></g><g transform="translate(-38,-6) scale(1,1)"><rect fill="#C0C0C0" stroke="none" x="279" y="487" width="98.95263671875" height="92" opacity="0.2"/></g><g transform="translate(-38,-6) scale(1,1)"><rect fill="#ffffff" stroke="none" x="272" y="480" width="98.95263671875" height="92"/></g><g transform="translate(-38,-6) scale(1,1)"><path fill="none" stroke="#000000" d="M 272 480 L 370.95263671875 480 L 370.95263671875 572 L 272 572 L 272 480 Z Z" stroke-miterlimit="10"/></g><g transform="translate(-38,-6) scale(1,1)"><rect fill="#ffffff" stroke="none" x="272" y="480" width="98.95263671875" height="92"/></g><g transform="translate(-38,-6) scale(1,1)"><path fill="none" stroke="#000000" d="M 272 480 L 370.95263671875 480 L 370.95263671875 572 L 272 572 L 272 480 Z Z" stroke-miterlimit="10"/></g><g transform="translate(-38,-6) scale(1,1)"><path fill="none" stroke="#000000" d="M 272 505 L 370.95263671875 505" stroke-miterlimit="10"/></g><g transform="translate(-38,-6) scale(1,1)"><g><path fill="none" stroke="none"/><text fill="#000000" stroke="none" font-family="Arial" font-size="13px" font-style="normal" font-weight="bold" text-decoration="none" x="294.022705078125" y="499.5">[0]: Order</text><path fill="none" stroke="#000000" d="M 351.09130859375 499.5 L 291.861328125 499.5" stroke-miterlimit="10"/></g></g><g transform="translate(-38,-6) scale(1,1)"><g><path fill="none" stroke="none"/><text fill="#000000" stroke="none" font-family="Arial" font-size="13px" font-style="normal" font-weight="normal" text-decoration="none" x="277" y="522.5">-tableNum = 2</text></g></g><g transform="translate(-38,-6) scale(1,1)"><g><path fill="none" stroke="none"/><text fill="#000000" stroke="none" font-family="Arial" font-size="13px" font-style="normal" font-weight="normal" text-decoration="none" x="277" y="537.5">-orderID = 3</text></g></g><g transform="translate(-38,-6) scale(1,1)"><g><path fill="none" stroke="none"/><text fill="#000000" stroke="none" font-family="Arial" font-size="13px" font-style="normal" font-weight="normal" text-decoration="none" x="277" y="552.5">-serverID = 372</text></g></g><g transform="translate(-38,-6) scale(1,1)"><g><path fill="none" stroke="none"/><text fill="#000000" stroke="none" font-family="Arial" font-size="13px" font-style="normal" font-weight="normal" text-decoration="none" x="277" y="567.5">-orderItem = 4</text></g></g><g transform="translate(-38,-6) scale(1,1)"><rect fill="#C0C0C0" stroke="none" x="375" y="487" width="91.01171875" height="92" opacity="0.2"/></g><g transform="translate(-38,-6) scale(1,1)"><rect fill="#ffffff" stroke="none" x="368" y="480" width="91.01171875" height="92"/></g><g transform="translate(-38,-6) scale(1,1)"><path fill="none" stroke="#000000" d="M 368 480 L 459.01171875 480 L 459.01171875 572 L 368 572 L 368 480 Z Z" stroke-miterlimit="10"/></g><g transform="translate(-38,-6) scale(1,1)"><rect fill="#ffffff" stroke="none" x="368" y="480" width="91.01171875" height="92"/></g><g transform="translate(-38,-6) scale(1,1)"><path fill="none" stroke="#000000" d="M 368 480 L 459.01171875 480 L 459.01171875 572 L 368 572 L 368 480 Z Z" stroke-miterlimit="10"/></g><g transform="translate(-38,-6) scale(1,1)"><path fill="none" stroke="#000000" d="M 368 505 L 459.01171875 505" stroke-miterlimit="10"/></g><g transform="translate(-38,-6) scale(1,1)"><g><path fill="none" stroke="none"/><text fill="#000000" stroke="none" font-family="Arial" font-size="13px" font-style="normal" font-weight="bold" text-decoration="none" x="386.05224609375" y="499.5">[1]: Order</text><path fill="none" stroke="#000000" d="M 443.120849609375 499.5 L 383.890869140625 499.5" stroke-miterlimit="10"/></g></g><g transform="translate(-38,-6) scale(1,1)"><g><path fill="none" stroke="none"/><text fill="#000000" stroke="none" font-family="Arial" font-size="13px" font-style="normal" font-weight="normal" text-decoration="none" x="373" y="522.5">-tableNum = 7</text></g></g><g transform="translate(-38,-6) scale(1,1)"><g><path fill="none" stroke="none"/><text fill="#000000" stroke="none" font-family="Arial" font-size="13px" font-style="normal" font-weight="normal" text-decoration="none" x="373" y="537.5">-orderID = 5</text></g></g><g transform="translate(-38,-6) scale(1,1)"><g><path fill="none" stroke="none"/><text fill="#000000" stroke="none" font-family="Arial" font-size="13px" font-style="normal" font-weight="normal" text-decoration="none" x="373" y="552.5">-serverID = 1</text></g></g><g transform="translate(-38,-6) scale(1,1)"><g><path fill="none" stroke="none"/><text fill="#000000" stroke="none" font-family="Arial" font-size="13px" font-style="normal" font-weight="normal" text-decoration="none" x="373" y="567.5">-orderItem = 9</text></g></g><g transform="translate(-38,-6) scale(1,1)"><path fill="none" stroke="#000000" d="M 184 510 L 271 520" stroke-miterlimit="10"/></g><g transform="translate(-38,-6) scale(1,1)"><path fill="none" stroke="#000000" d="M 260.42311304040726 523.0214999990066 L 271 520 L 261.3844883683757 514.6575346456812" stroke-miterlimit="10"/></g><g transform="translate(-38,-6) scale(1,1)"><g><path fill="none" stroke="none"/><text fill="#000000" stroke="none" font-family="Arial" font-size="13px" font-style="normal" font-weight="normal" text-decoration="none" x="198.5" y="506.5">-1 has 1..*</text></g></g></g></svg>